<?xml version="1.0" encoding="UTF-8"?>
<!DOCTYPE svg PUBLIC "-//W3C//DTD SVG 1.1//EN" "http://www.w3.org/Graphics/SVG/1.1/DTD/svg11.dtd">
<!-- Creator: CorelDRAW 2018 (64-Bit) -->
<svg xmlns="http://www.w3.org/2000/svg" xml:space="preserve" width="894px" height="199px" version="1.1" style="shape-rendering:geometricPrecision; text-rendering:geometricPrecision; image-rendering:optimizeQuality; fill-rule:evenodd; clip-rule:evenodd"
viewBox="0 0 894 199.28"
 xmlns:xlink="http://www.w3.org/1999/xlink">
 <defs>
  <style type="text/css">
   <![CDATA[
    .fil1 {fill:#231F20}
    .fil0 {fill:#EE1C25}
    .fil3 {fill:#373435;fill-rule:nonzero}
    .fil2 {fill:#FFF212;fill-rule:nonzero}
   ]]>
  </style>
 </defs>
 <g id="Слой_x0020_1">
  <metadata id="CorelCorpID_0Corel-Layer"/>
  <g id="_883444064">
   <path class="fil0" d="M27.67 100.05c-1.51,3.85 -4.73,8.74 -6.82,12.71l-18.19 32.91c-2.08,3.71 -3.66,4.86 -1.91,6.55 1.19,1.17 13.6,2.46 16.01,-0.7l5.74 -10.91c4.19,-8.14 17.54,-33.23 19.22,-38.22l9.42 0c0,5.71 -1.03,48.15 0.62,49.88 1.91,1.48 10.27,1.19 12.64,0.32 1.76,-1.46 0.71,-106.41 0.71,-112.6 0,-28.52 3.88,-23.59 -14.8,-23.59 -14.55,0 -20.14,0.13 -30.16,7.48 -6.45,4.74 -11.6,13.29 -14.03,24.34 -4.03,18.37 0.1,37.98 15.78,48.3 1.66,1.09 4.33,2.08 5.77,3.53zm23.47 -9.46l-0.01 -62.62c-13.36,-0.01 -16.94,-0.42 -24.07,7.29 -9,9.75 -10.27,36.35 -0.11,47.9 6.38,7.26 11.87,7.43 24.19,7.43z"/>
   <path class="fil1" d="M161.27 62.22c-1.38,3.95 -0.35,16.88 -0.65,22.35 -1.2,21.95 -3.16,37.57 -12.68,56.8l-5.23 0.36 -0.17 28.28c2.83,1.18 9.07,0.84 10.51,0.4 4.02,-1.23 2.23,-9.8 2.23,-17.23 5.29,-0.74 31.17,-0.32 38.91,-0.24l0.01 17.23c4.69,0.92 3.73,0.53 8.78,0.49 3.68,0 3.84,-0.62 3.84,-4.16l-0.17 -24.68c-3.27,-0.82 -3.75,0.32 -6.28,-1.51 -2.5,-5.18 0.85,-65.82 -0.84,-78.35 -5,-0.69 -35.52,-1.07 -38.26,0.26zm-1.47 79.1l25.8 0.05 0.21 -68.15 -11.65 -0.1c0,16.71 -2.16,38.33 -8.03,54.01 -1.6,4.26 -5.38,10.95 -6.33,14.19z"/>
   <path class="fil1" d="M265.99 148.5l-1.67 -8.19c-6.66,-0.28 -18.63,5.78 -27.49,-3.19 -6.04,-6.11 -8.42,-16.43 -7.61,-27.39 12.23,0.4 25.17,1.57 37.65,0.63 0,-19.56 -1.69,-41.12 -15.36,-48.63 -9.05,-4.97 -18.63,-1.41 -24.09,3.99 -15.16,15 -17.94,56.97 -6.06,76.01 10.94,17.55 32.59,15.68 44.63,6.77zm-36.31 -48.98l22.65 -0.65c0.17,-9.27 -1.36,-29.19 -11.49,-28 -8.7,1.03 -10.66,19.18 -11.16,28.65z"/>
   <path class="fil1" d="M83.71 64.91l0 84.34c0,4.53 0.01,3.66 10.68,3.66 3.02,0 3.02,0.31 3.4,-2.3 0.29,-2.01 -0.48,-34.51 0.09,-41.31l20.59 -0.06c1.14,9.83 -0.47,30.84 0.11,40.73 0.23,3.91 0.87,2.94 10.94,2.94 2.61,0 3.1,-0.35 3.1,-3.02l0 -84.98c0,-3.23 1.3,-3.87 -10.77,-3.28l-2.8 0.27c-1.35,4 -0.4,29.28 -0.4,35.62l-20.89 -0.02 -0.03 -35.67 -10.37 -0.2c-3.48,0 -3.65,-0.16 -3.65,3.28z"/>
   <path class="fil1" d="M281.64 64.91l0 84.98c0,4.08 0.78,3.02 12.05,3.02 2.47,0 1.92,-1.19 1.95,-3.58 0.2,-13.7 -0.54,-29.41 0.01,-42.94 1.98,1.53 17.92,35.48 21.32,42.58 2.64,5.54 6.01,3.94 17.59,3.94 0.18,-2.56 -20.12,-40.84 -22.91,-45.91 -3.23,-5.89 -1.32,-5.85 1.73,-11.52 3.11,-5.8 17.59,-30.99 17.88,-33.71 -16.55,-1.17 -15.33,0.51 -18.79,7.87 -2.9,6.15 -14.34,31.27 -16.77,32.91l-0.15 -40.57c-4.9,-0.67 -5.75,-0.38 -10.81,-0.35 -3.43,0 -3.09,-0.05 -3.1,3.28z"/>
   <path class="fil1" d="M388.21 148.68c0.02,-2.82 -0.55,-6.16 -1.9,-8.4 -5.83,0.38 -19.49,5.71 -26.75,-4.52 -9.65,-13.59 -8.84,-42.53 -1.28,-57.36 7.96,-15.64 18.08,-2.64 21.64,-1.77 1.44,-0.99 6.59,-8.15 6.55,-11.92 -12.75,-5.28 -24.44,-10.47 -36.87,4.39 -15.42,18.43 -16.49,64.08 0.27,78.9 11.02,9.73 25.9,8.87 38.34,0.68z"/>
   <path class="fil2" d="M437.43 0l404.46 0c17.38,31.78 34.75,63.56 52.11,95.35l-51.96 103.93 -410.51 0 0 -199.28 5.9 0zm397.51 11.81l-391.6 0 0 175.66 391.45 0 45.94 -91.87 -45.79 -83.79z"/>
   <path class="fil3" d="M498.73 122.92l0 -64.49 12.79 0 15.25 45.65c1.42,4.25 2.44,7.44 3.08,9.55 0.74,-2.34 1.89,-5.79 3.45,-10.34l15.53 -44.86 11.42 0 0 64.49 -8.2 0 0 -53.95 -18.82 53.95 -7.69 0 -18.61 -54.94 0 54.94 -8.2 0zm105.76 -5.85c-2.94,2.51 -5.78,4.26 -8.5,5.3 -2.71,1.03 -5.63,1.55 -8.75,1.55 -5.13,0 -9.08,-1.25 -11.84,-3.76 -2.76,-2.49 -4.14,-5.69 -4.14,-9.58 0,-2.28 0.52,-4.36 1.56,-6.26 1.05,-1.89 2.41,-3.39 4.09,-4.53 1.7,-1.14 3.59,-2.01 5.71,-2.6 1.56,-0.4 3.92,-0.79 7.06,-1.18 6.39,-0.75 11.12,-1.67 14.14,-2.72 0.03,-1.08 0.04,-1.77 0.04,-2.06 0,-3.21 -0.75,-5.48 -2.25,-6.8 -2.03,-1.78 -5.04,-2.67 -9.04,-2.67 -3.74,0 -6.5,0.66 -8.27,1.97 -1.79,1.3 -3.09,3.62 -3.95,6.95l-7.74 -1.08c0.7,-3.32 1.86,-6.01 3.48,-8.05 1.62,-2.04 3.96,-3.6 7.02,-4.71 3.05,-1.1 6.61,-1.65 10.63,-1.65 4,0 7.25,0.46 9.76,1.41 2.49,0.94 4.34,2.11 5.51,3.54 1.17,1.43 2,3.23 2.48,5.4 0.25,1.36 0.39,3.79 0.39,7.28l0 10.51c0,7.34 0.16,11.98 0.49,13.95 0.32,1.97 0.98,3.84 1.94,5.64l-8.29 0c-0.79,-1.66 -1.3,-3.61 -1.53,-5.85zm-0.63 -17.56c-2.88,1.17 -7.2,2.16 -12.97,2.97 -3.27,0.46 -5.58,0.99 -6.94,1.57 -1.35,0.59 -2.38,1.44 -3.12,2.56 -0.73,1.12 -1.11,2.37 -1.11,3.75 0,2.09 0.8,3.84 2.4,5.24 1.61,1.39 3.95,2.1 7.03,2.1 3.05,0 5.76,-0.66 8.15,-2 2.37,-1.32 4.13,-3.13 5.24,-5.43 0.86,-1.79 1.28,-4.41 1.28,-7.88l0.04 -2.88zm20.19 41.34l0 -64.67 7.21 0 0 6.14c1.7,-2.38 3.62,-4.16 5.76,-5.35 2.14,-1.18 4.73,-1.78 7.78,-1.78 3.99,0 7.51,1.02 10.55,3.07 3.05,2.04 5.35,4.94 6.91,8.66 1.55,3.74 2.33,7.83 2.33,12.29 0,4.75 -0.86,9.05 -2.57,12.88 -1.71,3.81 -4.2,6.74 -7.48,8.78 -3.25,2.02 -6.69,3.05 -10.3,3.05 -2.64,0 -5.01,-0.56 -7.1,-1.67 -2.1,-1.11 -3.81,-2.51 -5.16,-4.2l0 22.8 -7.93 0zm7.21 -41.01c0,5.99 1.22,10.41 3.63,13.28 2.43,2.87 5.38,4.31 8.83,4.31 3.51,0 6.51,-1.49 9.01,-4.46 2.5,-2.97 3.75,-7.56 3.75,-13.8 0,-5.94 -1.22,-10.38 -3.66,-13.34 -2.45,-2.96 -5.36,-4.43 -8.76,-4.43 -3.36,0 -6.33,1.58 -8.91,4.71 -2.6,3.16 -3.89,7.72 -3.89,13.73zm42.8 -23.66l7.93 0 0 20.17c2.52,0 4.29,-0.48 5.31,-1.45 1.01,-0.96 2.49,-3.77 4.47,-8.44 1.57,-3.69 2.83,-6.12 3.79,-7.3 0.97,-1.17 2.08,-1.96 3.34,-2.37 1.28,-0.4 3.31,-0.61 6.08,-0.61l1.6 0 0 6.53 -2.21 -0.05c-2.09,0 -3.42,0.32 -4.01,0.93 -0.61,0.65 -1.56,2.57 -2.82,5.77 -1.2,3.06 -2.3,5.18 -3.3,6.35 -0.99,1.17 -2.54,2.23 -4.63,3.21 3.41,0.92 6.77,4.08 10.07,9.52l8.7 14.48 -8.71 0 -8.57 -14.44c-1.73,-2.92 -3.23,-4.85 -4.51,-5.78 -1.29,-0.93 -2.82,-1.39 -4.6,-1.39l0 21.61 -7.93 0 0 -46.74zm72.39 31.61l8.2 1.08c-1.28,4.76 -3.67,8.47 -7.15,11.1 -3.48,2.62 -7.93,3.95 -13.35,3.95 -6.81,0 -12.22,-2.11 -16.21,-6.31 -3.99,-4.19 -5.99,-10.09 -5.99,-17.67 0,-7.84 2.01,-13.93 6.05,-18.25 4.04,-4.34 9.28,-6.5 15.72,-6.5 6.23,0 11.32,2.11 15.27,6.36 3.94,4.25 5.92,10.22 5.92,17.93 0,0.46 -0.01,1.17 -0.04,2.1l-34.81 0c0.3,5.12 1.74,9.05 4.35,11.77 2.6,2.71 5.86,4.08 9.74,4.08 2.9,0 5.38,-0.77 7.42,-2.3 2.06,-1.53 3.68,-3.97 4.88,-7.34zm-25.94 -12.7l26.03 0c-0.35,-3.93 -1.35,-6.87 -2.99,-8.84 -2.51,-3.05 -5.78,-4.58 -9.79,-4.58 -3.63,0 -6.68,1.22 -9.16,3.65 -2.46,2.43 -3.82,5.69 -4.09,9.77zm37.02 -18.91l37.83 0 0 6.57 -14.95 0 0 40.17 -7.93 0 0 -40.17 -14.95 0 0 -6.57z"/>
  </g>
 </g>
</svg>
